<svg xmlns="http://www.w3.org/2000/svg" xmlns:xlink="http://www.w3.org/1999/xlink" width="40" zoomAndPan="magnify" viewBox="0 0 30 30.000001" height="40" preserveAspectRatio="xMidYMid meet" version="1.0"><defs><clipPath id="f9cc7cbca2"><path d="M 18 4.671875 L 26.613281 4.671875 L 26.613281 27.898438 L 18 27.898438 Z M 18 4.671875 " clip-rule="nonzero"/></clipPath><clipPath id="326798ea42"><path d="M 3.386719 4.671875 L 12 4.671875 L 12 27.898438 L 3.386719 27.898438 Z M 3.386719 4.671875 " clip-rule="nonzero"/></clipPath><clipPath id="3ad14983dc"><path d="M 9.320312 13.722656 L 20.933594 13.722656 L 20.933594 18.804688 L 9.320312 18.804688 Z M 9.320312 13.722656 " clip-rule="nonzero"/></clipPath><clipPath id="c69568fe76"><path d="M 9.320312 14 L 11 14 L 11 18 L 9.320312 18 Z M 9.320312 14 " clip-rule="nonzero"/></clipPath><clipPath id="e18633a17b"><path d="M 12.511719 2.691406 L 17.59375 2.691406 L 17.59375 6.320312 L 12.511719 6.320312 Z M 12.511719 2.691406 " clip-rule="nonzero"/></clipPath></defs><g clip-path="url(#f9cc7cbca2)"><path fill="#00b8d4" d="M 24.03125 12.414062 L 24.03125 9.835938 C 24.03125 6.988281 21.722656 4.671875 18.871094 4.671875 L 18.871094 7.253906 C 20.296875 7.253906 21.453125 8.410156 21.453125 9.835938 L 21.453125 12.414062 C 21.453125 13.964844 22.148438 15.339844 23.234375 16.285156 C 22.148438 17.230469 21.453125 18.605469 21.453125 20.15625 L 21.453125 22.738281 C 21.453125 24.164062 20.296875 25.320312 18.871094 25.320312 L 18.871094 27.898438 C 21.71875 27.898438 24.03125 25.589844 24.03125 22.738281 L 24.03125 20.15625 C 24.03125 18.730469 25.1875 17.578125 26.613281 17.578125 L 26.613281 14.996094 C 25.1875 14.996094 24.03125 13.839844 24.03125 12.414062 Z M 24.03125 12.414062 " fill-opacity="1" fill-rule="nonzero"/></g><g clip-path="url(#326798ea42)"><path fill="#020202" d="M 8.550781 12.414062 L 8.550781 9.835938 C 8.550781 8.410156 9.707031 7.253906 11.132812 7.253906 L 11.132812 4.671875 C 8.28125 4.671875 5.96875 6.984375 5.96875 9.835938 L 5.96875 12.414062 C 5.96875 13.839844 4.8125 14.996094 3.386719 14.996094 L 3.386719 17.578125 C 4.8125 17.578125 5.96875 18.734375 5.96875 20.160156 L 5.96875 22.738281 C 5.96875 25.585938 8.277344 27.898438 11.128906 27.898438 L 11.128906 25.316406 C 9.703125 25.316406 8.550781 24.164062 8.550781 22.738281 L 8.550781 20.160156 C 8.550781 18.609375 7.851562 17.230469 6.769531 16.285156 C 7.851562 15.339844 8.550781 13.964844 8.550781 12.414062 Z M 8.550781 12.414062 " fill-opacity="1" fill-rule="nonzero"/></g><g clip-path="url(#3ad14983dc)"><path fill="#000000" d="M 18.332031 13.722656 C 17.296875 13.722656 16.40625 14.3125 15.988281 15.164062 C 15.742188 15.070312 15.445312 15 15.097656 15.003906 C 14.773438 15.007812 14.496094 15.074219 14.265625 15.160156 C 13.84375 14.308594 12.953125 13.722656 11.921875 13.722656 C 10.484375 13.722656 9.320312 14.859375 9.320312 16.265625 C 9.320312 17.667969 10.484375 18.804688 11.921875 18.804688 C 13.359375 18.804688 14.523438 17.667969 14.523438 16.265625 C 14.523438 16.082031 14.503906 15.910156 14.46875 15.738281 C 14.660156 15.675781 14.878906 15.632812 15.125 15.632812 C 15.375 15.632812 15.59375 15.675781 15.785156 15.738281 C 15.75 15.910156 15.730469 16.082031 15.730469 16.265625 C 15.730469 17.667969 16.894531 18.804688 18.332031 18.804688 C 19.769531 18.804688 20.933594 17.667969 20.933594 16.265625 C 20.933594 14.859375 19.769531 13.722656 18.332031 13.722656 Z M 11.921875 18.566406 C 10.621094 18.566406 9.566406 17.535156 9.566406 16.265625 C 9.566406 14.992188 10.621094 13.964844 11.921875 13.964844 C 13.222656 13.964844 14.277344 14.992188 14.277344 16.265625 C 14.277344 17.535156 13.222656 18.566406 11.921875 18.566406 Z M 18.332031 18.566406 C 17.027344 18.566406 15.976562 17.535156 15.976562 16.265625 C 15.976562 14.992188 17.03125 13.964844 18.332031 13.964844 C 19.632812 13.964844 20.6875 14.992188 20.6875 16.265625 C 20.6875 17.535156 19.632812 18.566406 18.332031 18.566406 Z M 18.332031 18.566406 " fill-opacity="1" fill-rule="nonzero"/></g><g clip-path="url(#c69568fe76)"><path fill="#000000" d="M 10.6875 14.722656 C 10.621094 14.679688 10.089844 15.101562 9.941406 15.726562 C 9.785156 16.386719 10.117188 17.019531 10.199219 17.007812 C 10.269531 16.992188 10.109375 16.460938 10.304688 15.695312 C 10.464844 15.078125 10.738281 14.757812 10.6875 14.722656 Z M 10.6875 14.722656 " fill-opacity="1" fill-rule="nonzero"/></g><path fill="#000000" d="M 16.996094 14.722656 C 16.933594 14.679688 16.398438 15.101562 16.253906 15.726562 C 16.097656 16.386719 16.425781 17.019531 16.507812 17.007812 C 16.582031 16.992188 16.421875 16.460938 16.617188 15.695312 C 16.777344 15.078125 17.050781 14.757812 16.996094 14.722656 Z M 16.996094 14.722656 " fill-opacity="1" fill-rule="nonzero"/><g clip-path="url(#e18633a17b)"><path fill="#000000" d="M 13.75 4.519531 L 14.507812 4.519531 L 14.507812 6.320312 L 12.511719 6.320312 L 12.511719 4.800781 C 12.511719 4.058594 12.710938 3.523438 13.105469 3.203125 C 13.503906 2.878906 14.066406 2.710938 14.800781 2.695312 L 14.808594 3.425781 C 13.9375 3.507812 13.683594 3.859375 13.75 4.519531 Z M 16.542969 4.519531 L 17.300781 4.519531 L 17.300781 6.320312 L 15.304688 6.320312 L 15.304688 4.800781 C 15.304688 4.058594 15.503906 3.523438 15.898438 3.203125 C 16.296875 2.878906 16.859375 2.710938 17.59375 2.695312 L 17.59375 3.433594 C 16.71875 3.515625 16.476562 3.859375 16.542969 4.519531 Z M 16.542969 4.519531 " fill-opacity="1" fill-rule="nonzero"/></g></svg>