<svg xmlns="http://www.w3.org/2000/svg" xmlns:xlink="http://www.w3.org/1999/xlink" width="40" zoomAndPan="magnify" viewBox="0 0 30 30.000001" height="40" preserveAspectRatio="xMidYMid meet" version="1.0"><defs><clipPath id="97645252e2"><path d="M 18 4.671875 L 26.613281 4.671875 L 26.613281 27.898438 L 18 27.898438 Z M 18 4.671875 " clip-rule="nonzero"/></clipPath><clipPath id="8cdc48d415"><path d="M 3.386719 4.671875 L 12 4.671875 L 12 27.898438 L 3.386719 27.898438 Z M 3.386719 4.671875 " clip-rule="nonzero"/></clipPath><clipPath id="c42a9c0d91"><path d="M 9.320312 13.722656 L 20.933594 13.722656 L 20.933594 18.804688 L 9.320312 18.804688 Z M 9.320312 13.722656 " clip-rule="nonzero"/></clipPath><clipPath id="3f9f31fb2a"><path d="M 9.320312 14 L 11 14 L 11 18 L 9.320312 18 Z M 9.320312 14 " clip-rule="nonzero"/></clipPath><clipPath id="b5ed607ae3"><path d="M 12.511719 2.691406 L 17.59375 2.691406 L 17.59375 6.320312 L 12.511719 6.320312 Z M 12.511719 2.691406 " clip-rule="nonzero"/></clipPath></defs><g clip-path="url(#97645252e2)"><path fill="#00b8d4" d="M 24.03125 12.414062 L 24.03125 9.835938 C 24.03125 6.988281 21.722656 4.671875 18.871094 4.671875 L 18.871094 7.253906 C 20.296875 7.253906 21.453125 8.410156 21.453125 9.835938 L 21.453125 12.414062 C 21.453125 13.964844 22.148438 15.339844 23.234375 16.285156 C 22.148438 17.230469 21.453125 18.605469 21.453125 20.15625 L 21.453125 22.738281 C 21.453125 24.164062 20.296875 25.320312 18.871094 25.320312 L 18.871094 27.898438 C 21.71875 27.898438 24.03125 25.589844 24.03125 22.738281 L 24.03125 20.15625 C 24.03125 18.730469 25.1875 17.578125 26.613281 17.578125 L 26.613281 14.996094 C 25.1875 14.996094 24.03125 13.839844 24.03125 12.414062 Z M 24.03125 12.414062 " fill-opacity="1" fill-rule="nonzero"/></g><g clip-path="url(#8cdc48d415)"><path fill="#ffffff" d="M 8.550781 12.414062 L 8.550781 9.835938 C 8.550781 8.410156 9.707031 7.253906 11.132812 7.253906 L 11.132812 4.671875 C 8.28125 4.671875 5.96875 6.984375 5.96875 9.835938 L 5.96875 12.414062 C 5.96875 13.839844 4.8125 14.996094 3.386719 14.996094 L 3.386719 17.578125 C 4.8125 17.578125 5.96875 18.734375 5.96875 20.160156 L 5.96875 22.738281 C 5.96875 25.585938 8.277344 27.898438 11.128906 27.898438 L 11.128906 25.316406 C 9.703125 25.316406 8.550781 24.164062 8.550781 22.738281 L 8.550781 20.160156 C 8.550781 18.609375 7.851562 17.230469 6.769531 16.285156 C 7.851562 15.339844 8.550781 13.964844 8.550781 12.414062 Z M 8.550781 12.414062 " fill-opacity="1" fill-rule="nonzero"/></g><g clip-path="url(#c42a9c0d91)"><path fill="#ffffff" d="M 18.199219 13.722656 C 17.179688 13.722656 16.300781 14.316406 15.890625 15.175781 C 15.648438 15.082031 15.355469 15.011719 15.011719 15.015625 C 14.695312 15.019531 14.417969 15.085938 14.195312 15.175781 C 13.78125 14.316406 12.902344 13.722656 11.882812 13.722656 C 10.46875 13.722656 9.320312 14.871094 9.320312 16.285156 C 9.320312 17.703125 10.46875 18.847656 11.882812 18.847656 C 13.300781 18.847656 14.445312 17.703125 14.445312 16.285156 C 14.445312 16.105469 14.429688 15.929688 14.390625 15.757812 C 14.582031 15.691406 14.796875 15.648438 15.042969 15.648438 C 15.285156 15.648438 15.503906 15.695312 15.691406 15.757812 C 15.65625 15.929688 15.636719 16.105469 15.636719 16.285156 C 15.636719 17.703125 16.785156 18.847656 18.199219 18.847656 C 19.613281 18.847656 20.761719 17.703125 20.761719 16.285156 C 20.761719 14.871094 19.613281 13.722656 18.199219 13.722656 Z M 11.882812 18.609375 C 10.601562 18.609375 9.5625 17.570312 9.5625 16.285156 C 9.5625 15.003906 10.601562 13.964844 11.882812 13.964844 C 13.167969 13.964844 14.207031 15.003906 14.207031 16.285156 C 14.207031 17.570312 13.164062 18.609375 11.882812 18.609375 Z M 18.199219 18.609375 C 16.917969 18.609375 15.878906 17.570312 15.878906 16.285156 C 15.878906 15.003906 16.917969 13.964844 18.199219 13.964844 C 19.480469 13.964844 20.519531 15.003906 20.519531 16.285156 C 20.519531 17.570312 19.480469 18.609375 18.199219 18.609375 Z M 18.199219 18.609375 " fill-opacity="1" fill-rule="nonzero"/></g><g clip-path="url(#3f9f31fb2a)"><path fill="#ffffff" d="M 10.667969 14.730469 C 10.601562 14.6875 10.078125 15.113281 9.933594 15.746094 C 9.777344 16.410156 10.105469 17.050781 10.183594 17.035156 C 10.257812 17.023438 10.097656 16.484375 10.292969 15.710938 C 10.445312 15.089844 10.71875 14.765625 10.667969 14.730469 Z M 10.667969 14.730469 " fill-opacity="1" fill-rule="nonzero"/></g><path fill="#ffffff" d="M 16.886719 14.730469 C 16.820312 14.6875 16.296875 15.113281 16.152344 15.746094 C 15.996094 16.410156 16.324219 17.050781 16.402344 17.035156 C 16.476562 17.023438 16.316406 16.484375 16.511719 15.710938 C 16.667969 15.089844 16.9375 14.765625 16.886719 14.730469 Z M 16.886719 14.730469 " fill-opacity="1" fill-rule="nonzero"/><g clip-path="url(#b5ed607ae3)"><path fill="#ffffff" d="M 13.746094 4.683594 L 14.5 4.683594 L 14.5 6.648438 L 12.511719 6.648438 L 12.511719 4.992188 C 12.511719 4.179688 12.710938 3.601562 13.101562 3.246094 C 13.496094 2.894531 14.058594 2.710938 14.789062 2.695312 L 14.800781 3.492188 C 13.929688 3.582031 13.679688 3.964844 13.746094 4.683594 Z M 16.523438 4.683594 L 17.28125 4.683594 L 17.28125 6.648438 L 15.292969 6.648438 L 15.292969 4.992188 C 15.292969 4.179688 15.488281 3.601562 15.882812 3.246094 C 16.277344 2.894531 16.839844 2.710938 17.570312 2.695312 L 17.570312 3.5 C 16.699219 3.589844 16.460938 3.964844 16.523438 4.683594 Z M 16.523438 4.683594 " fill-opacity="1" fill-rule="nonzero"/></g></svg>